<?xml version="1.0" encoding="UTF-8" standalone="no"?>
<!-- Created with Inkscape (http://www.inkscape.org/) -->

<svg
   width="600"
   height="400"
   viewBox="0 0 158.75 105.83333"
   version="1.1"
   id="svg1"
   xml:space="preserve"
   inkscape:version="1.4 (e7c3feb100, 2024-10-09)"
   sodipodi:docname="splash_screen.svg"
   xmlns:inkscape="http://www.inkscape.org/namespaces/inkscape"
   xmlns:sodipodi="http://sodipodi.sourceforge.net/DTD/sodipodi-0.dtd"
   xmlns="http://www.w3.org/2000/svg"
   xmlns:svg="http://www.w3.org/2000/svg"><sodipodi:namedview
     id="namedview1"
     pagecolor="#ffffff"
     bordercolor="#000000"
     borderopacity="0.25"
     inkscape:showpageshadow="2"
     inkscape:pageopacity="0.0"
     inkscape:pagecheckerboard="0"
     inkscape:deskcolor="#d1d1d1"
     inkscape:document-units="mm"
     inkscape:zoom="2.015"
     inkscape:cx="299.75186"
     inkscape:cy="200"
     inkscape:window-width="1920"
     inkscape:window-height="1008"
     inkscape:window-x="0"
     inkscape:window-y="0"
     inkscape:window-maximized="1"
     inkscape:current-layer="layer1" /><defs
     id="defs1" /><g
     inkscape:label="Layer 1"
     inkscape:groupmode="layer"
     id="layer1"><g
       inkscape:label="Layer 1"
       id="layer1-3"
       transform="matrix(0.61364364,0,0,0.61364364,-124.18259,-278.62102)"><path
         inkscape:connector-curvature="0"
         style="fill:#2980b9;fill-opacity:1;fill-rule:evenodd;stroke:#2980b9;stroke-width:3;stroke-linecap:butt;stroke-linejoin:round;stroke-opacity:1"
         d="m 285.5703,479.24859 h 91.71655 v 83.37009 H 285.5703 Z"
         id="path4266" /><g
         style="font-style:normal;font-weight:normal;font-size:40px;line-height:125%;font-family:sans-serif;letter-spacing:0px;word-spacing:0px;fill:#000000;fill-opacity:1;stroke:none;stroke-width:1px;stroke-linecap:butt;stroke-linejoin:miter;stroke-opacity:1"
         id="text4873"><path
           d="m 313.43298,529.37701 q 2.73438,0 4.44336,-1.5039 1.70899,-1.50391 1.77735,-3.99903 h 9.26269 q -0.0342,3.75977 -2.05078,6.9043 -2.0166,3.11035 -5.53711,4.85352 -3.48633,1.70898 -7.72461,1.70898 -7.92969,0 -12.50976,-5.02441 -4.58008,-5.0586 -4.58008,-13.94532 v -0.64941 q 0,-8.54492 4.5459,-13.63769 4.54589,-5.09278 12.47558,-5.09278 6.93848,0 11.1084,3.96485 4.2041,3.93066 4.27246,10.49316 h -9.26269 q -0.0684,-2.87109 -1.77735,-4.64844 -1.70898,-1.81152 -4.51172,-1.81152 -3.45214,0 -5.22949,2.5293 -1.74316,2.49511 -1.74316,8.13476 v 1.02539 q 0,5.70801 1.74316,8.20313 1.74317,2.49511 5.29785,2.49511 z"
           style="font-style:normal;font-variant:normal;font-weight:bold;font-stretch:normal;font-size:70px;font-family:Roboto;-inkscape-font-specification:'Roboto Bold';fill:#ffffff;fill-opacity:1"
           id="path4241" /><path
           d="m 333.01794,517.82428 q 0,-8.71582 3.86231,-13.77441 3.89648,-5.0586 10.66406,-5.0586 5.94727,0 9.46777,4.5459 l 0.64942,-3.8623 h 8.68164 v 51.20117 h -9.91211 v -17.39746 q -3.41797,3.8623 -8.95508,3.8623 -6.59668,0 -10.52734,-5.12695 -3.93067,-5.12695 -3.93067,-14.38965 z m 9.87793,0.71777 q 0,5.29785 1.84571,8.06641 1.87988,2.76855 5.26367,2.76855 4.5459,0 6.42578,-3.62304 v -15.27832 q -1.8457,-3.48633 -6.35742,-3.48633 -3.41797,0 -5.29785,2.76855 -1.87989,2.76856 -1.87989,8.78418 z"
           style="font-style:normal;font-variant:normal;font-weight:bold;font-stretch:normal;font-size:70px;font-family:Roboto;-inkscape-font-specification:'Roboto Bold';fill:#ffffff;fill-opacity:1"
           id="path4243" /></g></g><text
       xml:space="preserve"
       style="font-weight:bold;font-size:12.7px;font-family:'DejaVu Sans';-inkscape-font-specification:'DejaVu Sans Bold';text-align:start;writing-mode:lr-tb;direction:ltr;text-anchor:start;fill:#484848;stroke-width:0.264583"
       x="44.52879"
       y="81.255363"
       id="text1"><tspan
         sodipodi:role="line"
         id="tspan1"
         style="font-size:12.7px;stroke-width:0.264583"
         x="44.52879"
         y="81.255363">CQ-editor</tspan></text><text
       xml:space="preserve"
       style="font-weight:bold;font-size:6.35px;font-family:'DejaVu Sans';-inkscape-font-specification:'DejaVu Sans Bold';text-align:start;writing-mode:lr-tb;direction:ltr;text-anchor:start;fill:#484848;stroke-width:0.264583"
       x="54.68631"
       y="91.993599"
       id="text2"><tspan
         sodipodi:role="line"
         id="tspan2"
         style="stroke-width:0.264583"
         x="54.68631"
         y="91.993599">CadQuery IDE</tspan></text></g></svg>
